# xmcd
#
# Track frame offsets: 
#        150
#        12556
#        26143
#        39844
#        54889
#        67924
#        87364
#        98450
#        113116
#        129202
#        143684
#
# Disc length: 2108 seconds
#
# Revision: 0
# Processed by: cddbd v1.5.2PL0 Copyright (c) Steve Scherf et al.
# Submitted via: ExactAudioCopy v0.99pb5
#
DISCID=7e083a0b
DTITLE=Todd O'Neill - Real Life
DYEAR=2008
DGENRE=Country
TTITLE0=I Need You
TTITLE1=Can I Come Over Tonight
TTITLE2=Cajun Queen
TTITLE3=Drinkin' A Cold One
TTITLE4=American Roads
TTITLE5=Hank Williams, Jack Daniels and Memories Of you
TTITLE6=Runaway Angel
TTITLE7=Old Man Got A Little Smarter
TTITLE8=Man She Wanted You To be
TTITLE9=Jumpin' In The Deep End
TTITLE10=Real Life
EXTD=
EXTT0=
EXTT1=
EXTT2=
EXTT3=
EXTT4=
EXTT5=
EXTT6=
EXTT7=
EXTT8=
EXTT9=
EXTT10=
PLAYORDER=
